<svg width="175" height="96" viewBox="0 0 175 96" fill="none" xmlns="http://www.w3.org/2000/svg">
<path fill-rule="evenodd" clip-rule="evenodd" d="M38.1056 58.617C38.1056 57.8957 37.7674 57.3209 37.0912 56.8926C32.7408 54.3004 27.7029 53.0043 21.9775 53.0043C18.9795 53.0043 15.7449 53.3875 12.2736 54.1539C11.3268 54.3567 10.8535 54.9428 10.8535 55.9121C10.8535 56.3629 11.0056 56.7517 11.3099 57.0786C11.6142 57.4054 12.0143 57.5688 12.5102 57.5688C12.623 57.5688 13.04 57.4787 13.7613 57.2983C16.7367 56.6897 19.4754 56.3854 21.9775 56.3854C27.0717 56.3854 31.5461 57.5463 35.4006 59.868C35.8289 60.116 36.2008 60.2399 36.5164 60.2399C36.9447 60.2399 37.3166 60.0878 37.6322 59.7835C37.9477 59.4792 38.1055 59.0904 38.1056 58.617ZM41.3515 51.3475C41.3515 50.4458 40.957 49.7583 40.168 49.285C34.8258 46.1067 28.6496 44.5176 21.6393 44.5176C18.1906 44.5176 14.7756 44.991 11.3944 45.9377C10.3125 46.2307 9.7715 46.952 9.7715 48.1016C9.7715 48.6651 9.96874 49.1441 10.3632 49.5386C10.7577 49.9331 11.2367 50.1303 11.8002 50.1303C11.958 50.1303 12.375 50.0401 13.0512 49.8598C15.8013 49.1159 18.6301 48.744 21.5379 48.744C27.8268 48.744 33.3268 50.1416 38.0379 52.9367C38.5789 53.2297 39.0072 53.3762 39.3228 53.3762C39.8863 53.3762 40.3653 53.179 40.7597 52.7845C41.1542 52.3901 41.3514 51.9111 41.3515 51.3475ZM45.0031 42.9622C45.0031 41.9028 44.5523 41.1139 43.6506 40.5955C40.8104 38.9499 37.5082 37.7046 33.7439 36.8593C29.9795 36.014 26.1137 35.5914 22.1465 35.5914C17.5482 35.5914 13.4457 36.1211 9.83914 37.1805C9.32072 37.3383 8.88682 37.6257 8.53742 38.0427C8.18802 38.4597 8.01332 39.0063 8.01332 39.6825C8.01332 40.3813 8.24436 40.9674 8.70644 41.4407C9.16855 41.9141 9.74899 42.1508 10.4477 42.1508C10.6957 42.1508 11.1465 42.0606 11.8002 41.8803C14.7982 41.0463 18.2582 40.6293 22.1803 40.6293C25.7644 40.6293 29.2526 41.0125 32.645 41.7789C36.0374 42.5453 38.8945 43.6159 41.2162 44.9909C41.6895 45.2614 42.1404 45.3967 42.5687 45.3967C43.2223 45.3967 43.7915 45.1656 44.2761 44.7036C44.7608 44.2415 45.0031 43.661 45.0031 42.9622ZM51.9344 48.0002C51.9344 52.7113 50.7736 57.056 48.4519 61.0345C46.1301 65.013 42.98 68.1631 39.0015 70.4848C35.0231 72.8065 30.6783 73.9674 25.9672 73.9674C21.2561 73.9674 16.9114 72.8065 12.9329 70.4848C8.95442 68.1631 5.80431 65.013 3.48256 61.0345C1.16085 57.056 0 52.7113 0 48.0002C0 43.2891 1.16085 38.9443 3.48256 34.9658C5.80431 30.9874 8.95442 27.8373 12.9329 25.5155C16.9114 23.1938 21.2561 22.033 25.9672 22.033C30.6783 22.033 35.0231 23.1938 39.0015 25.5155C42.98 27.8373 46.1301 30.9874 48.4519 34.9658C50.7736 38.9443 51.9344 43.2891 51.9344 48.0002Z" fill="black"/>
<path d="M75.2379 42.9205C75.147 42.0038 74.7569 41.2917 74.0675 40.7841C73.3781 40.2765 72.4425 40.0227 71.2607 40.0227C70.4576 40.0227 69.7796 40.1364 69.2266 40.3636C68.6735 40.5833 68.2493 40.8902 67.9538 41.2841C67.666 41.678 67.522 42.125 67.522 42.625C67.5069 43.0417 67.594 43.4053 67.7834 43.7159C67.9804 44.0265 68.2493 44.2955 68.5902 44.5227C68.9311 44.7424 69.3251 44.9356 69.772 45.1023C70.219 45.2614 70.6963 45.3977 71.2038 45.5114L73.2948 46.0114C74.3099 46.2386 75.2417 46.5417 76.0902 46.9205C76.9387 47.2992 77.6735 47.7652 78.2948 48.3182C78.916 48.8712 79.397 49.5227 79.7379 50.2727C80.0864 51.0227 80.2645 51.8826 80.272 52.8523C80.2645 54.2765 79.9008 55.5114 79.1811 56.5568C78.469 57.5947 77.4387 58.4015 76.0902 58.9773C74.7493 59.5455 73.1319 59.8295 71.2379 59.8295C69.3591 59.8295 67.7228 59.5417 66.3288 58.9659C64.9425 58.3902 63.8591 57.5379 63.0788 56.4091C62.3061 55.2727 61.9008 53.8674 61.8629 52.1932H66.6243C66.6773 52.9735 66.9008 53.625 67.2948 54.1477C67.6963 54.6629 68.2304 55.053 68.897 55.3182C69.5713 55.5758 70.3326 55.7045 71.1811 55.7045C72.0145 55.7045 72.7379 55.5833 73.3516 55.3409C73.9728 55.0985 74.4538 54.7614 74.7948 54.3295C75.1357 53.8977 75.3061 53.4015 75.3061 52.8409C75.3061 52.3182 75.1508 51.8788 74.8402 51.5227C74.5372 51.1667 74.0902 50.8636 73.4993 50.6136C72.916 50.3636 72.2001 50.1364 71.3516 49.9318L68.8175 49.2955C66.8554 48.8182 65.3061 48.072 64.1698 47.0568C63.0334 46.0417 62.469 44.6742 62.4766 42.9545C62.469 41.5455 62.844 40.3144 63.6016 39.2614C64.3667 38.2083 65.416 37.3864 66.7493 36.7955C68.0826 36.2045 69.5978 35.9091 71.2948 35.9091C73.022 35.9091 74.5296 36.2045 75.8175 36.7955C77.1129 37.3864 78.1205 38.2083 78.8402 39.2614C79.5599 40.3144 79.9311 41.5341 79.9538 42.9205H75.2379ZM83.4908 66.0455V42.0455H88.2635V44.9773H88.4794C88.6915 44.5076 88.9984 44.0303 89.3999 43.5455C89.809 43.053 90.3393 42.6439 90.9908 42.3182C91.6499 41.9848 92.468 41.8182 93.4453 41.8182C94.718 41.8182 95.8923 42.1515 96.968 42.8182C98.0438 43.4773 98.9037 44.4735 99.5476 45.8068C100.192 47.1326 100.514 48.7955 100.514 50.7955C100.514 52.7424 100.199 54.3864 99.5703 55.7273C98.9491 57.0606 98.1006 58.072 97.0249 58.7614C95.9567 59.4432 94.7597 59.7841 93.434 59.7841C92.4946 59.7841 91.6953 59.6288 91.0362 59.3182C90.3847 59.0076 89.8506 58.6174 89.434 58.1477C89.0173 57.6705 88.6991 57.1894 88.4794 56.7045H88.3317V66.0455H83.4908ZM88.2294 50.7727C88.2294 51.8106 88.3734 52.7159 88.6612 53.4886C88.9491 54.2614 89.3658 54.8636 89.9112 55.2955C90.4567 55.7197 91.1196 55.9318 91.8999 55.9318C92.6877 55.9318 93.3544 55.7159 93.8999 55.2841C94.4453 54.8447 94.8582 54.2386 95.1385 53.4659C95.4264 52.6856 95.5703 51.7879 95.5703 50.7727C95.5703 49.7652 95.4302 48.8788 95.1499 48.1136C94.8696 47.3485 94.4567 46.75 93.9112 46.3182C93.3658 45.8864 92.6953 45.6705 91.8999 45.6705C91.112 45.6705 90.4453 45.8788 89.8999 46.2955C89.362 46.7121 88.9491 47.303 88.6612 48.0682C88.3734 48.8333 88.2294 49.7348 88.2294 50.7727ZM111.627 59.8409C109.862 59.8409 108.335 59.4659 107.048 58.7159C105.767 57.9583 104.779 56.9053 104.082 55.5568C103.385 54.2008 103.036 52.6288 103.036 50.8409C103.036 49.0379 103.385 47.4621 104.082 46.1136C104.779 44.7576 105.767 43.7045 107.048 42.9545C108.335 42.197 109.862 41.8182 111.627 41.8182C113.392 41.8182 114.915 42.197 116.195 42.9545C117.483 43.7045 118.476 44.7576 119.173 46.1136C119.87 47.4621 120.218 49.0379 120.218 50.8409C120.218 52.6288 119.87 54.2008 119.173 55.5568C118.476 56.9053 117.483 57.9583 116.195 58.7159C114.915 59.4659 113.392 59.8409 111.627 59.8409ZM111.65 56.0909C112.453 56.0909 113.123 55.8636 113.661 55.4091C114.199 54.947 114.604 54.3182 114.877 53.5227C115.157 52.7273 115.298 51.822 115.298 50.8068C115.298 49.7917 115.157 48.8864 114.877 48.0909C114.604 47.2955 114.199 46.6667 113.661 46.2045C113.123 45.7424 112.453 45.5114 111.65 45.5114C110.839 45.5114 110.157 45.7424 109.604 46.2045C109.059 46.6667 108.646 47.2955 108.366 48.0909C108.093 48.8864 107.957 49.7917 107.957 50.8068C107.957 51.822 108.093 52.7273 108.366 53.5227C108.646 54.3182 109.059 54.947 109.604 55.4091C110.157 55.8636 110.839 56.0909 111.65 56.0909ZM132.65 42.0455V45.6818H122.138V42.0455H132.65ZM124.525 37.8636H129.366V54.1364C129.366 54.5833 129.434 54.9318 129.57 55.1818C129.707 55.4242 129.896 55.5947 130.138 55.6932C130.388 55.7917 130.676 55.8409 131.002 55.8409C131.229 55.8409 131.457 55.822 131.684 55.7841C131.911 55.7386 132.085 55.7045 132.207 55.6818L132.968 59.2841C132.726 59.3598 132.385 59.447 131.945 59.5455C131.506 59.6515 130.972 59.7159 130.343 59.7386C129.176 59.7841 128.154 59.6288 127.275 59.2727C126.404 58.9167 125.726 58.3636 125.241 57.6136C124.756 56.8636 124.517 55.9167 124.525 54.7727V37.8636ZM135.803 59.5V42.0455H140.644V59.5H135.803ZM138.235 39.7955C137.515 39.7955 136.898 39.5568 136.383 39.0795C135.875 38.5947 135.621 38.0152 135.621 37.3409C135.621 36.6742 135.875 36.1023 136.383 35.625C136.898 35.1402 137.515 34.8977 138.235 34.8977C138.955 34.8977 139.568 35.1402 140.076 35.625C140.591 36.1023 140.849 36.6742 140.849 37.3409C140.849 38.0152 140.591 38.5947 140.076 39.0795C139.568 39.5568 138.955 39.7955 138.235 39.7955ZM153.908 42.0455V45.6818H143.136V42.0455H153.908ZM145.602 59.5V40.7841C145.602 39.5189 145.848 38.4697 146.34 37.6364C146.84 36.803 147.522 36.178 148.386 35.7614C149.249 35.3447 150.23 35.1364 151.329 35.1364C152.071 35.1364 152.749 35.1932 153.363 35.3068C153.984 35.4205 154.446 35.5227 154.749 35.6136L153.886 39.25C153.696 39.1894 153.461 39.1326 153.181 39.0795C152.908 39.0265 152.628 39 152.34 39C151.628 39 151.132 39.1667 150.852 39.5C150.571 39.8258 150.431 40.2841 150.431 40.875V59.5H145.602ZM159.854 66.0455C159.241 66.0455 158.665 65.9962 158.127 65.8977C157.597 65.8068 157.157 65.6894 156.809 65.5455L157.9 61.9318C158.468 62.1061 158.979 62.2008 159.434 62.2159C159.896 62.2311 160.294 62.125 160.627 61.8977C160.968 61.6705 161.245 61.2841 161.457 60.7386L161.741 60L155.479 42.0455H160.57L164.184 54.8636H164.366L168.013 42.0455H173.138L166.354 61.3864C166.029 62.3258 165.585 63.1439 165.025 63.8409C164.472 64.5455 163.771 65.0871 162.923 65.4659C162.074 65.8523 161.051 66.0455 159.854 66.0455Z" fill="black"/>
</svg>
