<svg width="52" height="52" viewBox="0 0 52 52" fill="none" xmlns="http://www.w3.org/2000/svg">
<path id="Vector" fill-rule="evenodd" clip-rule="evenodd" d="M38.1056 36.617C38.1056 35.8957 37.7674 35.3209 37.0912 34.8926C32.7408 32.3004 27.7029 31.0043 21.9775 31.0043C18.9795 31.0043 15.7449 31.3875 12.2736 32.1539C11.3268 32.3568 10.8535 32.9428 10.8535 33.9121C10.8535 34.3629 11.0056 34.7517 11.3099 35.0786C11.6142 35.4054 12.0143 35.5688 12.5102 35.5688C12.623 35.5688 13.04 35.4787 13.7613 35.2983C16.7367 34.6897 19.4754 34.3854 21.9775 34.3854C27.0717 34.3854 31.5461 35.5463 35.4006 37.868C35.8289 38.116 36.2008 38.2399 36.5164 38.2399C36.9447 38.2399 37.3166 38.0878 37.6322 37.7835C37.9477 37.4792 38.1055 37.0904 38.1056 36.617ZM41.3515 29.3475C41.3515 28.4458 40.957 27.7583 40.168 27.285C34.8258 24.1067 28.6496 22.5176 21.6393 22.5176C18.1906 22.5176 14.7756 22.991 11.3944 23.9377C10.3125 24.2307 9.7715 24.952 9.7715 26.1016C9.7715 26.6651 9.96874 27.1441 10.3632 27.5386C10.7577 27.9331 11.2367 28.1303 11.8002 28.1303C11.958 28.1303 12.375 28.0401 13.0512 27.8598C15.8013 27.1159 18.6301 26.744 21.5379 26.744C27.8268 26.744 33.3268 28.1416 38.0379 30.9367C38.5789 31.2297 39.0072 31.3762 39.3228 31.3762C39.8863 31.3762 40.3653 31.179 40.7597 30.7845C41.1542 30.3901 41.3514 29.9111 41.3515 29.3475ZM45.0031 20.9622C45.0031 19.9028 44.5523 19.1139 43.6506 18.5955C40.8104 16.9499 37.5082 15.7046 33.7439 14.8593C29.9795 14.014 26.1137 13.5914 22.1465 13.5914C17.5482 13.5914 13.4457 14.1211 9.83914 15.1805C9.32072 15.3383 8.88682 15.6257 8.53742 16.0427C8.18802 16.4597 8.01332 17.0063 8.01332 17.6826C8.01332 18.3813 8.24436 18.9674 8.70644 19.4407C9.16855 19.9141 9.74899 20.1508 10.4477 20.1508C10.6957 20.1508 11.1465 20.0606 11.8002 19.8803C14.7982 19.0463 18.2582 18.6293 22.1803 18.6293C25.7644 18.6293 29.2526 19.0125 32.645 19.7789C36.0374 20.5453 38.8945 21.6159 41.2162 22.9909C41.6895 23.2614 42.1404 23.3967 42.5687 23.3967C43.2223 23.3967 43.7915 23.1656 44.2761 22.7036C44.7608 22.2415 45.0031 21.661 45.0031 20.9622ZM51.9344 26.0002C51.9344 30.7113 50.7736 35.056 48.4519 39.0345C46.1301 43.013 42.98 46.1631 39.0015 48.4848C35.0231 50.8065 30.6783 51.9674 25.9672 51.9674C21.2561 51.9674 16.9114 50.8065 12.9329 48.4848C8.95442 46.1631 5.80431 43.013 3.48256 39.0345C1.16085 35.056 0 30.7113 0 26.0002C0 21.2891 1.16085 16.9443 3.48256 12.9658C5.80431 8.98738 8.95442 5.83727 12.9329 3.51552C16.9114 1.19381 21.2561 0.032959 25.9672 0.032959C30.6783 0.032959 35.0231 1.19381 39.0015 3.51552C42.98 5.83727 46.1301 8.98738 48.4519 12.9658C50.7736 16.9443 51.9344 21.2891 51.9344 26.0002Z" fill="black"/>
</svg>
